<svg width="431" height="293" fill="none" xmlns="http://www.w3.org/2000/svg">
  <g clip-path="url(#a)">
    <path d="M386.326 196.029c-4.415 1.371-12.092 2.286-20.953 2.88-24.092 1.622-56.954.923-56.954.923s-169.394 5.164-293.072-53.541c0 0-17.88-10.613-.144-22.705a55.58 55.58 0 0 1 8.611-4.658l.22-.198a44.367 44.367 0 0 1 6.518-4.505c6.77-3.896 18.091-8.341 31.432-5.358l329.183 71.153s11.588 10.893-4.841 16.009Z" fill="#FFBA08"/>
    <path d="m321.453 168.199 72.089-45.721 30.354 6.909-32.729 50.633s-69.371-3.079-69.714-11.821ZM148.047 129.039l140.477-31.612 22.07 5.839-64.012 24.884-20.691 20.866-77.844-19.977Z" fill="#FFBA08"/>
    <path d="M365.374 198.909c-24.093 1.622-56.955.923-56.955.923s-169.394 5.164-293.072-53.541c0 0-17.88-10.613-.144-22.705l.045.242s26.309 19.885 155.824 42.12l194.302 32.961Z" fill="#F5F8FA"/>
    <path d="m343.177 196.678 60.568 28.543 15.639-.912-35.561-29.796s-44.279-11.911-40.646 2.165Z" fill="#FFBA08"/>
    <path d="M37.55 127.707c-2.956-.105-9.462-5.418-13.494-8.976a44.368 44.368 0 0 1 6.518-4.505c3.255 2.783 9.068 7.316 12.433 7.327 4.857.055-1.006 6.308-5.457 6.154Z" fill="#F5F8FA"/>
    <path d="m311.385 282.702-39.848-.001-107.775-81.273-20.007-15.09-9.717-7.332c19.738-14.988 95.698 11.09 95.698 11.09 1.411 1.325 1.772 3.422 1.586 5.709-.354 4.281-2.63 9.208-3.501 10.979-.21.434-.337.663-.337.663l83.901 75.255Z" fill="#FFBA08"/>
    <path d="m385.13 95.591-7.123 4.007 4.575-7.385a6.81 6.81 0 0 0-4.081-1.704l-.11-.006a7.649 7.649 0 0 1-1.423-.182l-2.409 1.36 1.093-1.767a8.344 8.344 0 0 1-3.917-3.32l-4.311 2.444 2.885-4.664c-2.285-3.062-5.48-5.032-9.102-5.222-4.341-.227-8.342 2.153-11.05 6.052a8.02 8.02 0 0 1-7.294 3.446l-.23-.012c-4.793-.252-8.962 4.982-9.314 11.693-.351 6.711 3.248 12.351 8.04 12.603a6.494 6.494 0 0 0 3.06-.601 12.553 12.553 0 0 1 5.295-.983 12.56 12.56 0 0 1 5.219 1.329 10.944 10.944 0 0 0 8.928.49 12.537 12.537 0 0 1 10.395.745 6.523 6.523 0 0 0 2.954.898c4.793.252 8.961-4.982 9.313-11.693a15.462 15.462 0 0 0-1.393-7.528Z" fill="#F5F8FA"/>
    <path opacity=".03" d="M371.23 112.688a12.856 12.856 0 0 0-7.477.418 10.932 10.932 0 0 1-8.925-.468 12.507 12.507 0 0 0-10.514-.346 6.522 6.522 0 0 1-3.063.6c-4.257-.223-7.574-4.705-8.013-10.407a8.098 8.098 0 0 0 2.248-2.183c2.707-3.895 6.709-6.275 11.049-6.048 4.341.228 8.034 2.958 10.317 7.083a8.208 8.208 0 0 0 6.89 4.264l.11.006c3.366.168 6.159 3.038 7.378 7.081Z" fill="#000"/>
    <path d="m101.305 64.966-3.55 2 2.282-3.682a3.378 3.378 0 0 0-2.035-.854l-.054-.003c-.239-.01-.477-.04-.71-.09l-1.2.675.542-.862a4.156 4.156 0 0 1-1.954-1.655l-2.149 1.222 1.456-2.322a6.088 6.088 0 0 0-4.54-2.606c-2.164-.113-4.16 1.073-5.494 3.019a3.997 3.997 0 0 1-3.647 1.718l-.115-.006c-2.39-.125-4.47 2.49-4.645 5.836-.175 3.347 1.62 6.16 4.01 6.285a3.245 3.245 0 0 0 1.527-.298 6.242 6.242 0 0 1 5.246.173 5.46 5.46 0 0 0 4.434.232 6.245 6.245 0 0 1 5.186.374c.448.263.952.416 1.47.447 2.39.125 4.47-2.485 4.645-5.832a7.739 7.739 0 0 0-.705-3.771Z" fill="#F5F8FA"/>
    <path opacity=".03" d="M94.372 73.495a6.37 6.37 0 0 0-3.732.21 5.439 5.439 0 0 1-4.455-.247 6.253 6.253 0 0 0-5.246-.168 3.23 3.23 0 0 1-1.523.298c-2.124-.111-3.78-2.348-4-5.19.44-.289.82-.658 1.123-1.09 1.347-1.945 3.343-3.13 5.494-3.018 2.15.112 4.003 1.487 5.15 3.536a4.096 4.096 0 0 0 3.444 2.126l.058.003c1.672.088 3.077 1.523 3.687 3.54Z" fill="#000"/>
    <path d="m249.101 27.489-7.123 4.006 4.575-7.384a6.81 6.81 0 0 0-4.081-1.705l-.111-.006a7.628 7.628 0 0 1-1.422-.181l-2.41 1.36 1.093-1.767a8.337 8.337 0 0 1-3.916-3.32l-4.312 2.444 2.886-4.665c-2.285-3.061-5.481-5.031-9.103-5.221-4.34-.228-8.342 2.153-11.049 6.052a8.011 8.011 0 0 1-7.294 3.445l-.231-.012c-4.792-.25-8.961 4.983-9.313 11.693-.352 6.711 3.247 12.352 8.04 12.603a6.479 6.479 0 0 0 3.059-.6 12.543 12.543 0 0 1 10.514.346 10.96 10.96 0 0 0 8.928.49 12.54 12.54 0 0 1 10.396.745c.898.531 1.911.84 2.953.898 4.793.251 8.962-4.982 9.314-11.693a15.461 15.461 0 0 0-1.393-7.528ZM76.22 199.839l-7.124 4.006 4.575-7.384a6.806 6.806 0 0 0-4.081-1.705l-.11-.006a7.652 7.652 0 0 1-1.423-.181l-2.41 1.36 1.093-1.768a8.34 8.34 0 0 1-3.916-3.32l-4.311 2.444 2.885-4.664c-2.285-3.062-5.48-5.032-9.103-5.222-4.34-.227-8.342 2.154-11.05 6.053a8.02 8.02 0 0 1-7.293 3.445l-.23-.012c-4.793-.251-8.962 4.982-9.314 11.693-.352 6.711 3.247 12.352 8.04 12.603a6.467 6.467 0 0 0 3.06-.601 12.54 12.54 0 0 1 10.513.346 10.958 10.958 0 0 0 8.928.491 12.524 12.524 0 0 1 10.396.745 6.533 6.533 0 0 0 2.954.898c4.792.251 8.961-4.983 9.313-11.693a15.465 15.465 0 0 0-1.393-7.528Z" fill="#F5F8FA"/>
    <path opacity=".03" d="M235.201 44.585a12.864 12.864 0 0 0-7.478.418 10.921 10.921 0 0 1-8.924-.467 12.517 12.517 0 0 0-10.514-.347 6.536 6.536 0 0 1-3.064.6c-4.256-.222-7.574-4.704-8.013-10.406a8.121 8.121 0 0 0 2.249-2.183c2.707-3.895 6.708-6.276 11.049-6.048 4.34.227 8.034 2.958 10.316 7.083a8.209 8.209 0 0 0 6.89 4.264l.111.006c3.366.167 6.158 3.037 7.378 7.08ZM62.32 216.935a12.866 12.866 0 0 0-7.478.418 10.929 10.929 0 0 1-8.925-.468 12.508 12.508 0 0 0-10.514-.346 6.536 6.536 0 0 1-3.064.601c-4.256-.223-7.573-4.705-8.013-10.407a8.123 8.123 0 0 0 2.249-2.184c2.707-3.894 6.708-6.275 11.049-6.048 4.34.228 8.034 2.958 10.316 7.084a8.215 8.215 0 0 0 6.89 4.264l.111.006c3.366.167 6.158 3.037 7.378 7.08Z" fill="#000"/>
  </g>
  <defs>
    <clipPath id="a">
      <path fill="#fff" transform="rotate(3 7.21 275.339)" d="M0 0h417.147v270.744H0z"/>
    </clipPath>
  </defs>
</svg>