<svg width="85" height="85" fill="none" xmlns="http://www.w3.org/2000/svg">
  <path d="m61.938 18.905.082.631-.946.196-.126 1.345h1.133l1.507-.146.778-.924-.827-.322-.453-.52-.68-1.102-.325-1.558-1.278.26-.358.55v.618l.615.422.878.55Z" fill="#FFBA08"/>
  <path d="m60.849 19.423.068-.843-.75-.323-1.049.243-.778 1.248v.81h.907l1.602-1.135ZM39.26 23.001l-.23.595h-1.118v.576h.266l.038.284.686-.058.428-.266.112-.537.554-.047.218-.45-.508-.106-.446.01ZM36.38 24.048l-.043.565.81-.068.083-.567-.485-.383-.364.453Z" fill="#FFBA08"/>
  <path d="M84.99 42.06a42.913 42.913 0 0 0-.193-3.692 42.241 42.241 0 0 0-2.812-11.572c-.109-.27-.208-.545-.324-.813a42.55 42.55 0 0 0-7.971-12.315c-.218-.234-.44-.465-.662-.692a42.316 42.316 0 0 0-1.94-1.899C63.531 4.2 53.497 0 42.498 0 31.408 0 21.302 4.274 13.726 11.258a42.997 42.997 0 0 0-4.86 5.305C3.314 23.744 0 32.74 0 42.499 0 65.936 19.066 85 42.5 85c16.485 0 30.797-9.44 37.841-23.193a42.097 42.097 0 0 0 3.995-11.879c.428-2.414.662-4.896.662-7.429.002-.147-.007-.292-.008-.439Zm-8-16.986.247-.276c.323.628.626 1.266.914 1.913l-.402-.016-.759.105v-1.726Zm-6.14-7.415.006-1.898a40.267 40.267 0 0 1 1.927 2.192l-.766 1.14-2.676-.025-.168-.558 1.676-.851Zm8.848 14.05h-3.11l-1.895-1.411-1.994.194v1.216h-.631l-.682-.486-3.454-.876V28.11l-4.377.34-1.357.73h-1.737l-.852-.086-2.11 1.171v2.205l-4.312 3.111.358 1.329h.874l-.229 1.265-.615.226-.033 3.307 3.727 4.245h1.622l.098-.26h2.916l.84-.777H64.4l.907.909 2.465.255-.327 3.278 2.736 4.83-1.44 2.753.097 1.297 1.135 1.131v3.119l1.49 2.003v2.59h1.286c-7.16 8.792-18.058 14.422-30.25 14.422C20.992 81.504 3.495 64.006 3.495 42.5A38.802 38.802 0 0 1 6.61 27.235v-1.217l1.395-1.694a38.36 38.36 0 0 1 1.558-2.674l.063.708-1.619 1.966c-.502.948-.97 1.916-1.395 2.911v2.22l1.62.78v3.085l1.555 2.652 1.264.194.162-.91-1.491-2.3-.292-2.235h.874l.369 2.3 2.155 3.145-.556 1.016 1.371 2.095 3.404.843v-.55l1.361.193-.13.972 1.07.196 1.653.451 2.333 2.659 2.98.225.293 2.432-2.04 1.426-.096 2.171-.292 1.33 2.95 3.693.226 1.265s1.07.29 1.2.29c.13 0 2.4 1.719 2.4 1.719v6.676l.808.227-.55 3.08 1.362 1.816-.252 3.052 1.799 3.163 2.309 2.017 2.321.042.227-.746-1.706-1.437.098-.714.306-.874.065-.891-1.154-.035-.582-.73.958-.922.13-.696-1.07-.306.062-.646 1.525-.231 2.318-1.114.778-1.426 2.431-3.112-.552-2.433.746-1.295 2.236.068 1.505-1.192.486-4.696 1.67-2.12.291-1.362-1.522-.488-1.005-1.648-3.435-.035-2.724-1.038-.13-1.942-.908-1.59-2.463-.036-1.423-2.234-1.264-.617-.065.681-2.3.137-.843-1.173-2.4-.488-1.977 2.285-3.111-.528-.226-3.507-2.27-.388.91-1.72-.26-.987-2.984 1.994-1.878-.229-.67-1.467.41-1.512 1.035-1.907 2.382-1.206L25 32.11l-.012 1.404 1.654.77-.131-2.4 1.192-1.198 2.405-1.58.164-1.112 2.399-2.497 2.55-1.412-.225-.185 1.727-1.626.633.168.29.363.655-.727.161-.072-.718-.1-.73-.244v-.7l.387-.316h.851l.39.172.337.681.413-.062v-.06l.119.04 1.196-.183.17-.584.68.171v.633l-.632.435h.002l.093.694 2.165.668.006.026.498-.042.033-.938-1.717-.782-.097-.45 1.424-.487.063-1.363-1.49-.907-.097-2.3-2.042 1.004h-.745l.196-1.75-2.78-.655-1.15.869v2.65l-2.067.655-.829 1.727-.899.146v-2.21l-1.943-.27-.972-.632-.392-1.432 3.477-2.034 1.701-.518.171 1.143.948-.049.073-.575.991-.141.018-.201-.427-.177-.098-.608 1.219-.103.736-.766.04-.056.009.003.223-.23 2.561-.324 1.133.962-2.97 1.582 3.78.891.489-1.264h1.652l.584-1.1-1.168-.293V10.86l-3.662-1.622-2.528.292-1.426.746.097 1.815-1.49-.228-.23-1.003 1.429-1.297-2.593-.13-.745.226-.323.874.972.165-.194.971-1.652.098-.259.647-2.396.066s-.067-1.36-.163-1.36 1.88-.033 1.88-.033l1.428-1.395-.78-.39-1.037 1.007-1.72-.098-1.036-1.426h-2.205l-2.3 1.718H24.5l.192.617-.547.51 2.334.064.356.842-2.627-.098-.128-.648-1.651-.357-.876-.486-1.967.016A38.786 38.786 0 0 1 42.5 3.496c9.863 0 18.874 3.687 25.75 9.744l-.464.829-1.799.704-.758.823.174.96.929.13.559 1.398 1.601-.645.264 1.87h-.482l-1.315-.194-1.458.245-1.41 1.993-2.018.316-.292 1.727.852.201-.247 1.11-2.003-.402-1.837.402-.39 1.023.318 2.146 1.079.506 1.809-.01 1.222-.11.372-.973 1.909-2.48 1.257.257 1.238-1.12.23.875 3.045 2.054-.372.5-1.372-.074.528.749.844.185.99-.413-.022-1.192.44-.22-.354-.374-2.031-1.133-.535-1.505h1.689l.54.535 1.454 1.253.061 1.516 1.507 1.604.561-2.198 1.044-.57.196 1.798 1.019 1.12 2.033-.036a38.77 38.77 0 0 1 1.056 3.092l-.212.196Zm.633 1.968.122-.144c.051.22.105.44.154.664l-.276-.52Z" fill="#FFBA08"/>
  <path d="M6.611 26.018v1.217c.425-.993.893-1.961 1.395-2.91l-1.395 1.693Z" fill="#FFBA08"/>
</svg>