<svg width="85" height="85" fill="none" xmlns="http://www.w3.org/2000/svg">
  <path d="M32.964 34.418c-.788 0-1.426.639-1.426 1.426v43.167a1.426 1.426 0 0 0 2.852 0V35.844c0-.788-.639-1.426-1.426-1.426ZM39.426 34.418c-.788 0-1.426.639-1.426 1.426v43.167a1.426 1.426 0 0 0 2.852 0V35.844c0-.788-.638-1.426-1.426-1.426ZM45.426 34.418c-.788 0-1.426.639-1.426 1.426v43.167a1.426 1.426 0 0 0 2.852 0V35.844c0-.788-.638-1.426-1.426-1.426ZM52.036 34.418c-.787 0-1.426.639-1.426 1.426v43.167a1.426 1.426 0 0 0 2.853 0V35.844c0-.788-.64-1.426-1.427-1.426Z" fill="#FFBA08"/>
  <path d="M69.026 82.148H60.28V31.47c0-.788-.639-1.427-1.426-1.427h-1.626V17.02c0-.788-.639-1.427-1.426-1.427h-2.448V5.61c0-.788-.638-1.426-1.426-1.426H42.5c-1.426 0-1.426 2.757-1.426 0h-8.002c-.788 0-1.426.638-1.426 1.426v9.983h-2.447c-.788 0-1.427.639-1.427 1.427v13.025h-1.625c-.788 0-1.427.639-1.427 1.427v50.677h-8.746a1.426 1.426 0 0 0 0 2.852h53.052a1.426 1.426 0 0 0 0-2.852ZM34.498 7.035h16.004v8.557h-1.336v-5.198a1.426 1.426 0 0 0-2.852 0v5.198h-2.388v-5.198a1.426 1.426 0 0 0-2.852 0v5.198h-2.387v-5.198a1.426 1.426 0 0 0-2.853 0v5.198h-1.336V7.035Zm-3.873 11.41h23.75v11.6h-2.589v-9.35a1.426 1.426 0 0 0-2.852 0v9.35h-2.388v-9.35a1.426 1.426 0 0 0-2.852 0v9.35h-2.388v-9.35a1.426 1.426 0 0 0-2.852 0v9.35h-2.388v-9.35a1.426 1.426 0 0 0-2.852 0v9.35h-2.59v-11.6Zm-3.052 63.703V32.897h29.855v49.25H27.573Z" fill="#FFBA08"/>
</svg>