<svg width="85" height="85" fill="none" xmlns="http://www.w3.org/2000/svg">
  <g clip-path="url(#a)">
    <path d="M80.176 64.745v-3.368c0-3.069-2.42-5.576-5.45-5.734V28.18h3.352a2.097 2.097 0 0 0 2.098-2.098v-9.02c0-.984-.686-1.836-1.647-2.047L42.95 7.188a2.096 2.096 0 0 0-.902 0L6.471 15.014a2.097 2.097 0 0 0-1.647 2.048v9.02c0 1.158.94 2.097 2.098 2.097h3.352v27.464c-3.03.158-5.45 2.665-5.45 5.734v3.369C2.086 65.239 0 67.634 0 70.513v5.25c0 1.16.94 2.098 2.097 2.098H82.903A2.097 2.097 0 0 0 85 75.764v-5.251c0-2.879-2.086-5.274-4.824-5.768ZM9.019 61.377c0-.857.697-1.554 1.554-1.554h63.854c.857 0 1.554.697 1.554 1.554v3.27H9.02v-3.27Zm11.42-5.749h-5.97V28.79h5.97v26.838Zm23.23-27.45v27.45h-2.338v-27.45h2.338Zm10.165 27.45h-5.97V28.79h5.97v26.838Zm16.698 0h-5.97V28.79h5.97v26.838ZM37.136 28.79v26.838h-5.97V28.79h5.97ZM4.194 70.513c0-.922.75-1.671 1.671-1.671H79.134c.921 0 1.67.75 1.67 1.67v3.154H4.195v-3.153Zm56.173-14.885H58.03v-27.45h2.338v27.45ZM9.02 18.748 42.5 11.383l33.481 7.365v5.236H9.02v-5.236Zm17.952 9.43v27.45h-2.338v-27.45h2.338Z" fill="#FFBA08"/>
  </g>
  <defs>
    <clipPath id="a">
      <path fill="#fff" d="M0 0h85v85H0z"/>
    </clipPath>
  </defs>
</svg>