<svg width="85" height="85" fill="none" xmlns="http://www.w3.org/2000/svg">
  <path d="M81.703 78.335H36.605c2.445-7.646 3.817-17.538 3.817-27.88 0-22.936-14.202-41.214-14.806-41.98a2.867 2.867 0 0 0-4.503 0c-.605.766-14.806 19.045-14.806 41.98 0 10.342 1.37 20.234 3.816 27.88H2.867a2.867 2.867 0 0 0 0 5.733h78.836a2.867 2.867 0 0 0 0-5.733Zm-51.153 0h-4.32V20.12c3.849 7.07 8.458 18.095 8.458 30.335 0 10.62-1.497 20.638-4.138 27.88Zm-18.51-27.88c0-12.241 4.61-23.265 8.458-30.335v58.215h-4.32c-2.64-7.242-4.138-17.26-4.138-27.88ZM76.258 23.006c0-7.352-5.98-13.333-13.332-13.333s-13.333 5.981-13.333 13.333 5.981 13.333 13.333 13.333 13.332-5.981 13.332-13.333Zm-13.332 7.6c-4.19 0-7.6-3.41-7.6-7.6 0-4.19 3.41-7.6 7.6-7.6 4.19 0 7.6 3.41 7.6 7.6 0 4.19-3.41 7.6-7.6 7.6ZM62.926 9.043a2.867 2.867 0 0 0 2.867-2.867V3.798a2.867 2.867 0 0 0-5.734 0v2.378a2.867 2.867 0 0 0 2.867 2.867ZM60.059 39.835v2.378a2.867 2.867 0 0 0 5.734 0v-2.378a2.867 2.867 0 1 0-5.734 0ZM76.888 23.006a2.867 2.867 0 0 0 2.867 2.867h2.378a2.867 2.867 0 0 0 0-5.734h-2.378a2.867 2.867 0 0 0-2.867 2.867ZM43.718 25.873h2.379a2.867 2.867 0 0 0 0-5.734h-2.379a2.867 2.867 0 0 0 0 5.734Z" fill="#FFBA08"/>
  <path d="M74.826 13.973c.733 0 1.467-.28 2.027-.84l1.681-1.682a2.867 2.867 0 1 0-4.054-4.054l-1.682 1.682a2.867 2.867 0 0 0 2.028 4.894ZM48.999 32.878l-1.682 1.682a2.867 2.867 0 1 0 4.054 4.055l1.682-1.682A2.867 2.867 0 1 0 49 32.878ZM74.48 38.615c.56.56 1.294.84 2.027.84a2.867 2.867 0 0 0 2.027-4.894l-1.681-1.683a2.867 2.867 0 0 0-4.055 4.055l1.682 1.682ZM48.999 13.133c.56.56 1.293.84 2.027.84a2.867 2.867 0 0 0 2.027-4.894l-1.682-1.682a2.867 2.867 0 0 0-4.054 4.054l1.682 1.682Z" fill="#FFBA08"/>
</svg>